{"title":"Bad Words (2013) [XviD - Italian English Ac3 5.1 - Sub ita Eng] ","uid":11570764,"size":1563967731,"categoryP":"video","categoryS":"movies","magnet":"?xt=urn:btih:92d161637a907d5ff46bb1cf70270af9c1fb35bc&amp;dn=Bad+Words+%282013%29+%5BXviD+-+Italian+English+Ac3+5.1+-+Sub+ita+Eng%5D+&amp;tr=udp%3A%2F%2Ftracker.openbittorrent.com%3A80&amp;tr=udp%3A%2F%2Fopen.demonii.com%3A1337&amp;tr=udp%3A%2F%2Ftracker.coppersurfer.tk%3A6969&amp;tr=udp%3A%2F%2Fexodus.desync.com%3A6969","seeders":8,"leechers":3,"uploader":"robbyrs4","files":4,"time":1417019051,"description":"Bad Words (2013) [XviD - Italian English Ac3 5.1 - Sub ita Eng] MIRCrew\n\n\n[center][color=green][b][img]http://s19.postimg.org/mqmhlwtlf/Mircrew_original_red_skull.png[/img]\n\n[u]NO FOUND ONLY ORIGINAL RELEASE[/u]\n\n\nBad Words (2013)\n\n\n[img]http://s19.postimg.org/dmjulz6mr/image.jpg[/img]\n\n\n[URL=http://www.imdb.com/title/tt1609479/][IMG]http://www.userlogos.org/files/logos/Sucka/imdb_new.png[/IMG][/URL]  \n\n[img]http://imageshack.us/a/img534/6946/zcu.gif[/img]\n\n Date 2013\nDirected by \tJason Bateman\nProduced by \tJason Bateman\nWritten by \tAndrew Dodge\nMusic by \tRolfe Kent\nCinematography \tKen Seng\nEdited by \tTatiana S. Riegel\nProduction company \tDarko Entertainment\nAggregate Films MXN Entertainment\nDistributed by \tFocus Features\nRunning time \t88 minutes\nCountry \tUnited States\nLanguage \tEnglish\n\n[img]http://imageshack.us/a/img4/8946/u96.gif[/img]\n\n\n\nJason Bateman\nKathryn Hahn\nRohan Chand\nBen Falcone\nPhilip Baker Hall\nAllison Janney\n\n\n\n[img]http://imageshack.us/a/img844/6546/cupz.gif[/img]. \n\nDopo aver scoperto una lacuna nelle regole del concorso nazionale di spelling, il quarantenne Guy Trilby domina la competizione riservata a concorrenti preadolescenti. Formando una insolita amicizia con un goffo ragazzo indiano.....\n\n[img]http://imageshack.us/a/img202/6180/4e6.gif[/img]\n\nForty-year-old Guy Trilby discovers a loophole in the Golden Quill Spelling Bee which stipulates that participants must have not graduated from the eighth grade, allowing him to enter since he dropped out of middle school. He attends and wins a regional spelling bee, and progresses to the national competition after confrontations with both the parents of children and the spelling bee hosts......\n\n\n &lt;a href=&quot;\nhttp://s19.postimg.org/a6rqcf9eb/vlcsnap_2014_11_26_15h49m17s227.png[/img]&quot; rel=&quot;nofollow&quot; target=&quot;_NEW&quot;&gt;\nhttp://s19.postimg.org/a6rqcf9eb/vlcsnap_2014_11_26_15h49m17s227.png[/img]&lt;/a&gt;\n &lt;a href=&quot;\nhttp://s19.postimg.org/r4qqy9is3/vlcsnap_2014_11_26_15h49m59s130.png[/img]&quot; rel=&quot;nofollow&quot; target=&quot;_NEW&quot;&gt;\nhttp://s19.postimg.org/r4qqy9is3/vlcsnap_2014_11_26_15h49m59s130.png[/img]&lt;/a&gt;\n &lt;a href=&quot;\nhttp://s19.postimg.org/j0imtiwcz/vlcsnap_2014_11_26_15h50m09s233.png[/img]&quot; rel=&quot;nofollow&quot; target=&quot;_NEW&quot;&gt;\nhttp://s19.postimg.org/j0imtiwcz/vlcsnap_2014_11_26_15h50m09s233.png[/img]&lt;/a&gt;\n\n\n[img]http://imageshack.us/a/img571/2166/an4p.gif[/img]\n\n\n[spoiler]\nGeneral\nComplete name                            : Bad Words (2013).ita.eng.sub.ita.eng.MIRCrewBad Words (2013).ita.eng.sub.ita.eng.MIRCrew.avi\nFormat                                   : AVI\nFormat/Info                              : Audio Video Interleave\nFile size                                : 1.46 GiB\nDuration                                 : 1h 28mn\nOverall bit rate                         : 2 345 Kbps\nWriting application                      : VirtualDubMod 1.5.4.1 (build 2178/release)\nWriting library                          : VirtualDubMod build 2178/release\n\nVideo\nID                                       : 0\nFormat                                   : MPEG-4 Visual\nFormat profile                           : Simple@L3\nFormat settings, BVOP                    : No\nFormat settings, QPel                    : No\nFormat settings, GMC                     : No warppoints\nFormat settings, Matrix                  : Default (H.263)\nCodec ID                                 : XVID\nCodec ID/Hint                            : XviD\nDuration                                 : 1h 28mn\nBit rate                                 : 1 434 Kbps\nWidth                                    : 720 pixels\nHeight                                   : 300 pixels\nDisplay aspect ratio                     : 2.40:1\nFrame rate                               : 23.976 fps\nColor space                              : YUV\nChroma subsampling                       : 4:2:0\nBit depth                                : 8 bits\nScan type                                : Progressive\nCompression mode                         : Lossy\nBits/(Pixel*Frame)                       : 0.277\nStream size                              : 912 MiB (61%)\nWriting library                          : XviD 64\n\nAudio #1\nID                                       : 1\nFormat                                   : AC-3\nFormat/Info                              : Audio Coding 3\nMode extension                           : CM (complete main)\nCodec ID                                 : 2000\nDuration                                 : 1h 28mn\nBit rate mode                            : Constant\nBit rate                                 : 448 Kbps\nChannel(s)                               : 6 channels\nChannel positions                        : Front: L C R, Side: L R, LFE\nSampling rate                            : 48.0 KHz\nBit depth                                : 16 bits\nCompression mode                         : Lossy\nStream size                              : 285 MiB (19%)\nAlignment                                : Split accross interleaves\nInterleave, duration                     : 42 ms (1.00 video frame)\nInterleave, preload duration             : 500 ms\n\nAudio #2\nID                                       : 2\nFormat                                   : AC-3\nFormat/Info                              : Audio Coding 3\nMode extension                           : CM (complete main)\nCodec ID                                 : 2000\nDuration                                 : 1h 28mn\nBit rate mode                            : Constant\nBit rate                                 : 448 Kbps\nChannel(s)                               : 6 channels\nChannel positions                        : Front: L C R, Side: L R, LFE\nSampling rate                            : 48.0 KHz\nBit depth                                : 16 bits\nCompression mode                         : Lossy\nStream size                              : 285 MiB (19%)\nAlignment                                : Split accross interleaves\nInterleave, duration                     : 42 ms (1.00 video frame)\nInterleave, preload duration             : 500 ms\n\n\n\n\n\n[/spoiler]\n\n[/color][/b][/center]","torrent":{"xt":"urn:btih:92d161637a907d5ff46bb1cf70270af9c1fb35bc","amp;dn":"Bad+Words+%282013%29+%5BXviD+-+Italian+English+Ac3+5.1+-+Sub+ita+Eng%5D+","amp;tr":["udp%3A%2F%2Ftracker.openbittorrent.com%3A80","udp%3A%2F%2Fopen.demonii.com%3A1337","udp%3A%2F%2Ftracker.coppersurfer.tk%3A6969","udp%3A%2F%2Fexodus.desync.com%3A6969"],"infoHash":"92d161637a907d5ff46bb1cf70270af9c1fb35bc","infoHashBuffer":{"type":"Buffer","data":[146,209,97,99,122,144,125,95,244,107,177,207,112,39,10,249,193,251,53,188]},"announce":[],"urlList":[]}}